
<svg width="120" height="35" viewBox="0 0 120 35" fill="none" xmlns="http://www.w3.org/2000/svg">
  <path d="M24.0929 8.85714C24.0929 4.02857 20.1643 0.1 15.3357 0.1C10.5071 0.1 6.57857 4.02857 6.57857 8.85714C6.57857 13.6857 10.5071 17.6143 15.3357 17.6143C20.1643 17.6143 24.0929 13.6857 24.0929 8.85714Z" fill="#0074DE"/>
  <path d="M15.3357 17.6143C10.5071 17.6143 6.57857 21.5429 6.57857 26.3714C6.57857 31.2 10.5071 35.1286 15.3357 35.1286C20.1643 35.1286 24.0929 31.2 24.0929 26.3714C24.0929 21.5429 20.1643 17.6143 15.3357 17.6143ZM15.3357 28.5143C14.1929 28.5143 13.2429 27.5643 13.2429 26.4214C13.2429 25.2786 14.1929 24.3286 15.3357 24.3286C16.4786 24.3286 17.4286 25.2786 17.4286 26.4214C17.4286 27.5643 16.4786 28.5143 15.3357 28.5143Z" fill="#0C1629"/>
  <path d="M6.57857 26.3714C1.75 26.3714 0 31.2 0 31.2C0 31.2 3.92857 35.1286 8.75714 35.1286C13.5857 35.1286 17.5143 31.2 17.5143 31.2C17.5143 31.2 11.4071 26.3714 6.57857 26.3714Z" fill="#0C1629"/>
  <path d="M8.75714 0.1C3.92857 0.1 0 4.02857 0 4.02857C0 4.02857 1.75 8.85714 6.57857 8.85714C11.4071 8.85714 17.5143 4.02857 17.5143 4.02857C17.5143 4.02857 13.5857 0.1 8.75714 0.1Z" fill="#0C1629"/>
  <path d="M24.0928 26.3714C19.2642 26.3714 13.1571 31.2 13.1571 31.2C13.1571 31.2 17.0856 35.1286 21.9142 35.1286C26.7427 35.1286 30.6713 31.2 30.6713 31.2C30.6713 31.2 28.9213 26.3714 24.0928 26.3714Z" fill="#0C1629"/>
  <path d="M21.9142 0.1C17.0856 0.1 13.1571 4.02857 13.1571 4.02857C13.1571 4.02857 19.2642 8.85714 24.0928 8.85714C28.9213 8.85714 30.6713 4.02857 30.6713 4.02857C30.6713 4.02857 26.7427 0.1 21.9142 0.1Z" fill="#0C1629"/>
  <path d="M45.6642 23.1857C43.5285 23.1857 41.6857 22.5429 40.257 21.2571C38.8285 19.9714 38.1142 18.2214 38.1142 16C38.1142 13.7786 38.8285 12.0286 40.257 10.7429C41.6857 9.45715 43.5285 8.81429 45.6642 8.81429C47.0928 8.81429 48.3785 9.10001 49.507 9.64287C50.6356 10.1857 51.5856 10.9857 52.3142 12.0286L49.6499 14.0714C49.1642 13.3429 48.5214 12.8 47.8499 12.4143C47.1785 12.0286 46.4499 11.8286 45.6642 11.8286C44.4642 11.8286 43.4999 12.2143 42.7714 12.9857C42.0428 13.7571 41.6857 14.7714 41.6857 16C41.6857 17.2286 42.0428 18.2429 42.7714 19.0143C43.4999 19.7857 44.4642 20.1714 45.6642 20.1714C46.4499 20.1714 47.1785 19.9714 47.8499 19.5857C48.5214 19.2 49.1642 18.6571 49.6499 17.9286L52.3142 19.9714C51.5856 21.0143 50.6356 21.8143 49.507 22.3571C48.3785 22.9 47.0928 23.1857 45.6642 23.1857Z" fill="#0C1629"/>
  <path d="M58.8548 23.1857C56.8834 23.1857 55.2977 22.5429 54.1691 21.2571C53.0405 19.9714 52.4834 18.2214 52.4834 16C52.4834 13.7786 53.0405 12.0286 54.1691 10.7429C55.2977 9.45715 56.8834 8.81429 58.8548 8.81429C60.1405 8.81429 61.242 9.10001 62.1663 9.65715C63.0905 10.2143 63.7834 11.0143 64.2177 12.0286C64.652 13.0429 64.8763 14.6286 64.8763 16.8C64.8763 17.0571 64.8763 17.3143 64.8763 17.5714H56.1263C56.2691 18.4429 56.642 19.1143 57.2848 19.5857C57.9277 20.0571 58.742 20.2857 59.7277 20.2857C60.4563 20.2857 61.1277 20.1429 61.742 19.8571C62.3563 19.5714 62.9134 19.1429 63.3477 18.5714L65.3191 20.4143C64.742 21.2857 63.9563 21.9571 62.952 22.4286C61.9477 22.9 60.4563 23.1857 58.8548 23.1857ZM61.442 15.0571C61.3705 14.1857 61.042 13.5143 60.4563 13.0429C59.8705 12.5714 59.142 12.3429 58.2991 12.3429C57.4563 12.3429 56.7277 12.5714 56.142 13.0429C55.5563 13.5143 55.2277 14.2 55.1563 15.0571H61.442Z" fill="#0C1629"/>
  <path d="M73.7497 8.81429C75.242 8.81429 76.4656 9.45715 77.4584 10.7429C78.4513 12.0286 78.9371 13.7786 78.9371 16C78.9371 18.2214 78.4513 19.9714 77.4584 21.2571C76.4656 22.5429 75.242 23.1857 73.7497 23.1857C72.4641 23.1857 71.3355 22.7429 70.4656 21.8571V27.2143H66.9084V9.00001H70.4656V10.2857C71.3355 9.3714 72.4641 8.81429 73.7497 8.81429ZM72.7213 20.1C73.7856 20.1 74.5856 19.7143 75.1713 18.9429C75.7571 18.1714 76.0499 17.2 76.0499 15.9714C76.0499 14.7429 75.7571 13.7714 75.1713 13C74.5856 12.2286 73.7856 11.8429 72.7213 11.8429C71.6569 11.8429 70.8141 12.2286 70.1927 13C69.5713 13.7714 69.2784 14.7429 69.2784 15.9714C69.2784 17.2 69.5713 18.1714 70.1927 18.9429C70.8141 19.7143 71.6569 20.1 72.7213 20.1Z" fill="#0C1629"/>
  <path d="M81.0282 5.8C81.0282 5.12858 81.2711 4.58572 81.7568 4.14286C82.2425 3.70001 82.8282 3.45715 83.5282 3.45715C84.2282 3.45715 84.8139 3.70001 85.2996 4.14286C85.7854 4.58572 86.0282 5.12858 86.0282 5.8C86.0282 6.47143 85.7854 7.01429 85.2996 7.45715C84.8139 7.90001 84.2282 8.14286 83.5282 8.14286C82.8282 8.14286 82.2425 7.90001 81.7568 7.45715C81.2711 7.02858 81.0282 6.47143 81.0282 5.8ZM81.2996 23V9.00001H85.7711V23H81.2996Z" fill="#0C1629"/>
  <path d="M98.5993 9.00001V23H95.0422V21.7143C94.1722 22.6286 93.0437 23.1857 91.7579 23.1857C90.2665 23.1857 89.0422 22.5429 88.0494 21.2571C87.0565 19.9714 86.5708 18.2214 86.5708 16C86.5708 13.7786 87.0565 12.0286 88.0494 10.7429C89.0422 9.45715 90.2665 8.81429 91.7579 8.81429C93.0437 8.81429 94.1722 9.25715 95.0422 10.1714V9.00001H98.5993ZM92.7865 19.9857C93.8508 19.9857 94.6937 19.6 95.3151 18.8286C95.9365 18.0571 96.2294 17.0857 96.2294 15.8571C96.2294 14.6286 95.9365 13.6571 95.3151 12.8857C94.6937 12.1143 93.8508 11.7286 92.7865 11.7286C91.7222 11.7286 90.9222 12.1143 90.3365 12.8857C89.7508 13.6571 89.458 14.6286 89.458 15.8571C89.458 17.0857 89.7508 18.0571 90.3365 18.8286C90.9222 19.6 91.7222 19.9857 92.7865 19.9857Z" fill="#0C1629"/>
  <path d="M105.435 9.00001V11.8H102.179V17.9714C102.179 18.7429 102.307 19.2429 102.579 19.5C102.85 19.7571 103.293 19.8857 103.921 19.8857C104.107 19.8857 104.279 19.8714 104.436 19.8571C104.593 19.8429 104.779 19.8143 104.993 19.7714L105.321 22.8571C104.863 22.9857 104.421 23.0714 104 23.1286C103.578 23.1857 103.136 23.2143 102.678 23.2143C101.321 23.2143 100.25 22.8571 99.4788 22.1571C98.7074 21.4571 98.3217 20.3143 98.3217 18.7429V11.8H96.0074V9.00001H98.3217V5.37143H102.179V9.00001H105.435Z" fill="#0C1629"/>
  <path d="M117.913 9.00001V23H114.356V21.7143C113.656 22.6286 112.599 23.0857 111.184 23.0857C109.941 23.0857 108.856 22.6857 107.927 21.8714C107.013 21.0571 106.542 19.7714 106.542 18.0143V9.00001H110.399V17.1714C110.399 17.9714 110.57 18.5714 110.927 18.9571C111.284 19.3429 111.756 19.5429 112.356 19.5429C113.813 19.5429 114.542 18.5714 114.542 16.6429V9.00001H117.913Z" fill="#0C1629"/>
</svg>
